<?xml version="1.0" encoding="UTF-8" standalone="no"?>
<!-- Created with Inkscape (http://www.inkscape.org/) -->

<svg
   xmlns:dc="http://purl.org/dc/elements/1.1/"
   xmlns:cc="http://creativecommons.org/ns#"
   xmlns:rdf="http://www.w3.org/1999/02/22-rdf-syntax-ns#"
   xmlns:svg="http://www.w3.org/2000/svg"
   xmlns="http://www.w3.org/2000/svg"
   xmlns:sodipodi="http://sodipodi.sourceforge.net/DTD/sodipodi-0.dtd"
   xmlns:inkscape="http://www.inkscape.org/namespaces/inkscape"
   height="210.00000mm"
   id="svg1"
   inkscape:version="0.48.0 r9654"
   sodipodi:docname="colored.svg"
   sodipodi:version="0.32"
   width="210.00000mm"
   version="1.1">
  <metadata
     id="metadata3">
    <rdf:RDF>
      <cc:Work
         rdf:about="">
        <dc:title>Quake 3 Icon</dc:title>
        <dc:description>Icon for Quake 3 computer game</dc:description>
        <dc:subject>
          <rdf:Bag>
            <rdf:li />
            <rdf:li>quake</rdf:li>
            <rdf:li>application</rdf:li>
            <rdf:li>icons</rdf:li>
            <rdf:li>appicon</rdf:li>
            <rdf:li>hash</rdf:li>
            <rdf:li>game</rdf:li>
            <rdf:li>computer</rdf:li>
          </rdf:Bag>
        </dc:subject>
        <dc:publisher>
          <cc:Agent
             rdf:about="http://www.openclipart.org">
            <dc:title>Cosmin Stroe</dc:title>
          </cc:Agent>
        </dc:publisher>
        <dc:creator>
          <cc:Agent>
            <dc:title>Cosmin Stroe</dc:title>
          </cc:Agent>
        </dc:creator>
        <dc:rights>
          <cc:Agent>
            <dc:title>Cosmin Stroe</dc:title>
          </cc:Agent>
        </dc:rights>
        <dc:date />
        <dc:format>image/svg+xml</dc:format>
        <dc:type
           rdf:resource="http://purl.org/dc/dcmitype/StillImage" />
        <cc:license
           rdf:resource="http://web.resource.org/cc/PublicDomain" />
        <dc:language>en</dc:language>
      </cc:Work>
      <cc:License
         rdf:about="http://web.resource.org/cc/PublicDomain">
        <cc:permits
           rdf:resource="http://web.resource.org/cc/Reproduction" />
        <cc:permits
           rdf:resource="http://web.resource.org/cc/Distribution" />
        <cc:permits
           rdf:resource="http://web.resource.org/cc/DerivativeWorks" />
      </cc:License>
    </rdf:RDF>
  </metadata>
  <defs
     id="defs3" />
  <sodipodi:namedview
     bordercolor="#666666"
     borderopacity="1.0"
     id="base"
     inkscape:cx="183.10374"
     inkscape:cy="458.71629"
     inkscape:pageopacity="0.0"
     inkscape:pageshadow="2"
     inkscape:window-height="975"
     inkscape:window-width="1400"
     inkscape:window-x="0"
     inkscape:window-y="25"
     inkscape:zoom="1"
     pagecolor="#ffffff"
     showgrid="false"
     inkscape:window-maximized="1"
     inkscape:current-layer="svg1" />
  <path
     d="M 372.92246,96.822057 C 372.92247,96.822057 341.62864,175.06480 341.62864,369.13717 C 344.75893,563.20968 369.81283,635.23309 369.81283,635.23309 C 369.81283,635.23309 394.84622,591.40210 401.10665,366.02753 C 404.23681,143.78325 372.92246,96.822057 372.92246,96.822057 z M 270.45994,195.50579 C 270.45993,195.50579 51.345001,270.62082 48.214793,383.30804 C 45.084572,495.99523 273.60888,527.29884 273.60888,527.29884 L 301.75366,636.88634 L 314.27123,474.11919 C 314.27122,474.11920 110.82119,474.10275 113.95151,386.45714 C 117.08165,298.81140 270.45994,195.50579 270.45994,195.50579 z M 478.49477,195.50579 C 478.49477,195.50579 631.87308,298.81140 635.00320,386.45714 C 638.13350,474.10275 434.68348,474.11920 434.68348,474.11919 L 447.20094,636.88634 L 475.38514,527.29884 C 475.38514,527.29884 703.87009,495.99523 700.73995,383.30804 C 697.60964,270.62082 478.49477,195.50579 478.49477,195.50579 z "
     id="path861"
     style="fill:#eb0000;fill-rule:evenodd;stroke:#000000;stroke-width:13.590032;stroke-linejoin:round;" />
  <path
     d="M 361.41001,157.98869 C 361.41001,157.98869 348.88928,267.54578 348.88928,352.06122 C 348.88928,436.57667 352.01942,599.34714 352.01942,599.34714 C 352.01942,599.34714 380.19134,436.57667 380.19134,355.19137 C 380.19134,273.80622 361.41001,157.98869 361.41001,157.98869 z "
     id="path847"
     sodipodi:nodetypes="ccccc"
     style="fill:#ff8385;fill-rule:evenodd;stroke:none;stroke-opacity:1;stroke-width:1pt;stroke-linejoin:miter;stroke-linecap:butt;fill-opacity:1.0000000;" />
  <path
     d="M 223.49498,226.83434 C 223.49498,226.83434 73.245273,327.00082 73.245273,373.95376 C 95.156696,517.94302 308.01042,480.38067 308.01042,480.38067 C 308.01042,480.38067 123.32848,486.64097 110.80774,386.47465 C 126.45878,311.34977 223.49498,226.83434 223.49498,226.83434 z "
     id="path844"
     sodipodi:nodetypes="ccccc"
     style="fill:#ff8385;fill-rule:evenodd;stroke:none;stroke-opacity:1;stroke-width:1pt;stroke-linejoin:miter;stroke-linecap:butt;fill-opacity:1.0000000;" />
  <path
     d="M 583.50584,258.13623 C 586.63615,245.61549 702.45350,317.61005 696.19317,377.08390 C 702.45351,474.12023 539.68306,511.68258 539.68306,511.68258 C 539.68306,511.68258 689.93276,452.20875 664.89115,380.21420 C 655.50055,311.34977 583.50584,258.13623 583.50584,258.13623 z "
     id="path845"
     sodipodi:nodetypes="ccccc"
     style="fill:#ff8385;fill-rule:evenodd;stroke:none;stroke-opacity:1;stroke-width:1pt;stroke-linejoin:miter;stroke-linecap:butt;fill-opacity:1.0000000;" />
  <path
     d="M 372.92246,96.822057 C 372.92247,96.822057 341.62864,175.06480 341.62864,369.13717 C 344.75893,563.20968 369.81283,635.23309 369.81283,635.23309 C 369.81283,635.23309 394.84622,591.40210 401.10665,366.02753 C 404.23681,143.78325 372.92246,96.822057 372.92246,96.822057 z M 270.45994,195.50579 C 270.45993,195.50579 51.345001,270.62082 48.214793,383.30804 C 45.084572,495.99523 273.60888,527.29884 273.60888,527.29884 L 301.75366,636.88634 L 314.27123,474.11919 C 314.27122,474.11920 110.82119,474.10275 113.95151,386.45714 C 117.08165,298.81140 270.45994,195.50579 270.45994,195.50579 z M 478.49477,195.50579 C 478.49477,195.50579 631.87308,298.81140 635.00320,386.45714 C 638.13350,474.10275 434.68348,474.11920 434.68348,474.11919 L 447.20094,636.88634 L 475.38514,527.29884 C 475.38514,527.29884 703.87009,495.99523 700.73995,383.30804 C 697.60964,270.62082 478.49477,195.50579 478.49477,195.50579 z "
     id="path866"
     style="fill:none;fill-rule:evenodd;stroke:#000000;stroke-width:13.590032;stroke-linejoin:round;" />
</svg>
